<svg xmlns="http://www.w3.org/2000/svg" viewBox="0 0 64.8 64.8" width="64.8" height="64.8" aria-hidden="true"><path fill="#FABD0A" d="M55.209 55.2094h-9.6v-15.034c0-3.585-.064-8.2-4.993-8.2-5 0-5.765 3.906-5.765 7.939v15.294h-9.6v-30.916h9.216v4.225h.129a10.1 10.1 0 019.093-4.994c9.73 0 11.524 6.4 11.524 14.726zm-40.79-35.143a5.571 5.571 0 115.57-5.572 5.571 5.571 0 01-5.57 5.572m4.8 35.143h-9.61v-30.917h9.61zm40.776-55.2H4.781A4.728 4.728 0 000 4.6744v55.439a4.731 4.731 0 004.781 4.675h55.21a4.741 4.741 0 004.8-4.675V4.6704a4.738 4.738 0 00-4.8-4.67"/></svg>
